<svg xmlns="http://www.w3.org/2000/svg" xmlns:xlink="http://www.w3.org/1999/xlink" width="351" height="411" viewBox="0 0 351 411">
  <defs>
    <clipPath id="clip-notetre">
      <rect width="351" height="411"/>
    </clipPath>
  </defs>
  <g id="notetre" clip-path="url(#clip-notetre)">
    <g id="Group_66" data-name="Group 66" transform="translate(5.424 -3.566)">
      <path id="Path_693" data-name="Path 693" d="M332.582,401.961,63.264,398.455,7.576,401.961,13.234,77.37l-5.659-59.8H332.582L327.6,51.235Z" fill="#dcdcdc"/>
      <g id="Group_65" data-name="Group 65">
        <path class="letter" id="M_first" data-name="Path 694" d="M92.725,159.161h2.527v8.393H77.112v-8.337h2.583V139.688c-1.491,3.97-2.862,7.615-4.229,11.262-1.947,5.2-3.909,10.384-5.819,15.593a1.391,1.391,0,0,1-1.638,1.116c-1.384-.118-3.1.369-4.078-.286-.925-.618-1.1-2.374-1.576-3.643q-4.221-11.331-8.426-22.669c-.107-.288-.226-.572-.471-1.187v19.271h2.6v8.407H42.391V159.2h2.632V140.909h-2.6V132.36h1.2c6.278,0,12.557.029,18.834-.029a1.521,1.521,0,0,1,1.7,1.213c1.4,3.78,2.868,7.535,4.314,11.3.1.257.215.508.406.957,1.2-3.044,2.341-5.92,3.477-8.795.514-1.3.983-2.619,1.567-3.886a1.416,1.416,0,0,1,1.01-.725c6.6-.04,13.2-.028,19.794-.022a3.791,3.791,0,0,1,.536.087v8.365H92.725Z"/>
        <path class="letter" id="M_second" data-name="Path 695" d="M114.483,283.643H96.309v-8.4l2.607-.143V255.769c-.294.726-.472,1.141-.63,1.563-3.14,8.375-6.294,16.744-9.392,25.135-.346.938-.774,1.322-1.784,1.232-1.345-.119-3.013.367-3.965-.27-.893-.6-1.045-2.314-1.5-3.546q-4.286-11.5-8.563-23.01c-.093-.25-.2-.495-.429-1.076v19.334h2.6v8.492H61.624v-8.464h2.591V256.874H61.622V248.44c.33-.026.673-.075,1.016-.075,6.4-.005,12.8.014,19.2-.026a1.308,1.308,0,0,1,1.461,1.02c1.52,4.075,3.092,8.13,4.745,12.449.268-.62.454-1.021.616-1.432,1.467-3.713,2.912-7.435,4.421-11.131a1.5,1.5,0,0,1,1.031-.846c6.758-.05,13.517-.037,20.374-.037v8.472h-2.566v18.289h2.564Z"/>
        <path class="letter" id="m" data-name="Path 696" d="M191.383,159.872H194.6v7.76H178.544v-1.3q0-6,0-12c-.006-2.847-1.527-3.992-4.276-3.234a8.206,8.206,0,0,0-.793.267c-2.01.785-2.01.786-2.01,2.923v5.521h3.449v7.811H158.624v-1.391c0-4.04.009-8.08,0-12.119-.008-2.555-1.062-3.535-3.594-3.128a11.645,11.645,0,0,0-2.98,1.166,1.107,1.107,0,0,0-.481.838c-.04,2.235-.022,4.47-.022,6.835H155v7.806H135.667v-7.748h2.958V150.81h-2.943V143.1h15.862v3.391a15.141,15.141,0,0,1,7.063-3.53,22.327,22.327,0,0,1,5.118-.317,7.868,7.868,0,0,1,6.949,4.552c.665-.477,1.266-.919,1.877-1.346a16.231,16.231,0,0,1,9.108-3.28c6.14-.1,9.629,3.306,9.717,9.463C191.413,154.586,191.383,157.142,191.383,159.872Z"/>
        <path class="letter" id="G" data-name="Path 697" d="M101.2,308.472l.124-2.016h8.4V318.71c-2.717,0-5.421.027-8.123-.04-.291-.007-.621-.53-.845-.872A7.55,7.55,0,0,0,92.5,314.3a4.946,4.946,0,0,0-4.026,3.821,22.53,22.53,0,0,0-.094,11.5c1.01,3.887,4.211,4.836,7.476,4.1a3.721,3.721,0,0,0,2.912-4.179H95.353v-6.7H110.91c.911,7-1.5,13.489-7.255,16.862-6.744,3.951-18.334,3.36-24.516-1.382-5.446-4.178-7.337-9.954-6.643-16.564,1.42-13.534,14.8-18.693,25.338-14.946A31.709,31.709,0,0,1,101.2,308.472Z"/>
        <path class="letter" id="n_first" data-name="Path 698" d="M154.2,84.993h16.006v3.261c.779-.518,1.327-.895,1.887-1.251a14.861,14.861,0,0,1,10.649-2.266c3.986.641,6.64,3.616,6.94,8.006.171,2.509.1,5.034.142,7.551.007.47,0,.94,0,1.565h2.885v7.734H176.985V96.845c0-1.494-.176-2.973-1.713-3.675-1.661-.758-3.2-.037-4.675.732a.776.776,0,0,0-.349.568c-.023,2.428-.015,4.856-.015,7.41h3.512v7.709H154.21v-7.664h3.048V92.749H154.2Z"/>
        <path class="letter" id="n" data-name="Path 699" d="M239.494,259.037v3.219c.625-.41,1.044-.678,1.457-.956a14.676,14.676,0,0,1,10.086-2.675c4.979.566,7.744,3.486,8.007,8.526.127,2.432.046,4.876.059,7.315,0,.428,0,.856,0,1.39h2.858v7.76H246.3V276.87c0-2.2.052-4.4-.022-6.6-.045-1.355-.406-2.63-1.883-3.191-1.155-.437-3.906.111-4.647.943a.885.885,0,0,0-.229.524c-.015,2.389-.01,4.777-.01,7.3h3.5v7.782H223.593v-7.724h2.975v-9.146h-3v-7.728Z"/>
        <path class="letter" id="y" data-name="Path 700" d="M266.529,150.65v-7.575h16.707V150.7h-2.645c1.441,3.243,2.8,6.3,4.268,9.609,1.321-3.28,2.546-6.319,3.825-9.494l-2.216-.1v-7.62H299.06v7.494c-.034.029-.1.129-.148.12-1.92-.377-2.641.763-3.364,2.314-3.927,8.426-7.952,16.807-11.974,25.189a1.463,1.463,0,0,1-.956.792c-3.354.058-6.709.035-10.149.035v-7.8c1.03,0,2.089.01,3.147,0a2.241,2.241,0,0,0,1.811-2.979c-2.875-5.567-5.814-11.1-8.622-16.7C268.235,150.418,267.313,150.966,266.529,150.65Z"/>
        <path class="letter" id="a" data-name="Path 701" d="M169.262,333.909h3.12v7.744H156.47l-.156-1.779c-4.557,2.891-9.364,2.857-14.2,1.327a6.951,6.951,0,0,1-4.983-7.785,6.251,6.251,0,0,1,2.321-4.065,12.8,12.8,0,0,1,8.717-2.788c2.689.044,5.372.455,8.108.708.553-2.136-.071-4.043-1.812-5.012a5.935,5.935,0,0,0-6.971,1.015,1.775,1.775,0,0,1-1.749.631c-2.894-.35-5.8-.631-8.9-.959a8.369,8.369,0,0,1,2.5-3.58,12.543,12.543,0,0,1,6.708-2.644,44.964,44.964,0,0,1,16.674.551c4.589,1.155,6.534,3.765,6.536,8.455C169.263,328.4,169.262,331.068,169.262,333.909Zm-12.877-.717c0-2.6-.561-3.148-3.245-3.191a7.083,7.083,0,0,0-.956.021,3.309,3.309,0,0,0-2.942,4.105c.451,1.888,1.976,2.853,4.1,2.591C155.727,336.422,156.385,335.66,156.385,333.192Z"/>
        <path class="letter" id="o_third" data-name="Path 702" d="M202.692,284.422a24.266,24.266,0,0,1-10.362-2.136c-4.6-2.232-7.358-5.784-7.345-11,.014-5.176,2.764-8.787,7.349-10.869a22.932,22.932,0,0,1,20.6.328c7.314,3.682,8.972,12.682,3.533,18.479-2.833,3.019-6.554,4.323-10.553,4.912C204.688,284.314,203.446,284.357,202.692,284.422Zm3.992-13.014a25.971,25.971,0,0,0-.465-2.839,3.847,3.847,0,0,0-3.719-3,3.924,3.924,0,0,0-4.008,2.8,8.855,8.855,0,0,0,.027,6.09,3.633,3.633,0,0,0,3.618,2.608,3.7,3.7,0,0,0,3.773-2.412A22.371,22.371,0,0,0,206.684,271.408Z"/>
        <path class="letter" id="o_sedond" data-name="Path 703" d="M151.227,200.288a18.9,18.9,0,0,1,11.422,4.1,11.519,11.519,0,0,1-.285,18.046c-4.124,3.2-8.937,4.081-14.014,3.912a20.975,20.975,0,0,1-9.437-2.394c-4.285-2.319-6.735-5.8-6.681-10.793.054-4.962,2.671-8.317,6.889-10.557C142.366,200.881,145.886,200.25,151.227,200.288Zm-6.1,12.807c.158,1.092.209,1.974.423,2.815a3.827,3.827,0,0,0,3.7,3.169,3.966,3.966,0,0,0,4.08-2.875,9.039,9.039,0,0,0,.026-5.872,3.743,3.743,0,0,0-3.53-2.749,3.8,3.8,0,0,0-3.978,2.463A21.433,21.433,0,0,0,145.132,213.1Z"/>
        <path class="letter" id="o_first" data-name="Path 704" d="M215.859,168.376c-4.5-.034-8.53-.824-12.126-3.2a11.587,11.587,0,0,1-.371-19.427,19.735,19.735,0,0,1,10.806-3.443c4.814-.229,9.417.534,13.508,3.258a11.528,11.528,0,0,1,.741,18.908C224.66,167.42,220.249,168.332,215.859,168.376Zm-4.668-13.128a25.061,25.061,0,0,0,.665,3.2,3.574,3.574,0,0,0,3.495,2.6,3.758,3.758,0,0,0,3.854-2.284,8.524,8.524,0,0,0,.194-6.642,3.716,3.716,0,0,0-3.669-2.568,3.876,3.876,0,0,0-3.806,2.576A25.6,25.6,0,0,0,211.191,155.248Z"/>
        <path class="letter" id="f" data-name="Path 705" d="M191.347,208.721h-4.46v9.128h3.946v7.708H170.88v-7.641h2.955v-9.1H170.9v-7.862h2.884c.147-1.258.194-2.376.419-3.457.862-4.148,3.7-6.245,7.613-7.184,4.056-.971,8.171-.647,12.363-.65v6.779c-.853,0-1.749-.005-2.644,0-.439,0-.88.01-1.317.049-2.82.256-3.743,1.459-3.291,4.426h4.425Z"/>
        <path class="letter" id="Path_706" data-name="Path 706" d="M150.686,109.619H130.533v-8.443h3.138V82.871H130.56V74.462H150.7V82.79h-3.144v18.346h3.133Z"/>
        <path class="letter" id="e" data-name="Path 707" d="M239.882,330.673H220.573c-.365,3.146,1.365,5.638,3.971,5.866a3.654,3.654,0,0,0,3.727-1.889,1.253,1.253,0,0,1,1.53-.674c3.087.414,6.184.748,9.488,1.135a9.4,9.4,0,0,1-2.387,3.424,14.033,14.033,0,0,1-7.854,3.532,25.646,25.646,0,0,1-12.537-1.018c-4.747-1.728-7.81-4.956-8.321-10.129-.55-5.567,1.57-9.957,6.592-12.506a19.486,19.486,0,0,1,18.55.1C238.078,320.971,239.748,325.361,239.882,330.673Zm-19.225-3.417h7.214c-.061-1.992-.275-3.818-2.106-4.88a2.883,2.883,0,0,0-3.283.1C220.878,323.655,220.514,325.354,220.657,327.256Z"/>
        <path class="letter" id="e_first" data-name="Path 708" d="M131.436,156.686h-19.1c-.43,2.388.814,4.892,2.731,5.606,2.192.816,3.939.053,5.4-2.428,1.691.206,3.427.422,5.164.629s3.469.4,5.354.623a10.005,10.005,0,0,1-3.754,4.518,16.589,16.589,0,0,1-8.7,2.682,26.433,26.433,0,0,1-9.715-1.045c-5.667-1.848-8.729-5.747-9.029-11.5a12.09,12.09,0,0,1,7.827-11.928,19.784,19.784,0,0,1,17.794.872C129.513,147.009,132.116,152.366,131.436,156.686Zm-19.109-3.4H119.6c-.1-1.9-.233-3.684-1.953-4.81a2.915,2.915,0,0,0-3.289-.109C112.594,149.486,112.3,151.276,112.327,153.291Z"/>
        <path class="letter" id="r" data-name="Path 709" d="M184.935,340.2l-.138,1.736h-7.86v-7.854c2.346,0,4.622-.039,6.894.034a2.343,2.343,0,0,1,1.281.722,7.65,7.65,0,0,0,6.924,2.136,2.614,2.614,0,0,0,1.02-.312c.328-.235.743-.609.76-.941a1.287,1.287,0,0,0-.654-1c-1.1-.443-2.259-.757-3.4-1.1-2.977-.885-6.044-1.541-8.916-2.689-3.881-1.552-5.2-4.159-4.592-8.046.483-3.092,2.936-5.4,6.6-6.062a15.219,15.219,0,0,1,10.942,1.655l.2-1.407h7.642v7.112c-2.3,0-4.609.026-6.913-.027-.338-.008-.69-.362-1-.6a9.075,9.075,0,0,0-6.38-1.944,1.971,1.971,0,0,0-1.034.231c-.4.315-.893.756-.947,1.193-.04.323.495.946.88,1.053,1.611.448,3.279.686,4.894,1.122a76.5,76.5,0,0,1,8.117,2.407,6.245,6.245,0,0,1,4.33,6.5,7.145,7.145,0,0,1-4.732,6.863,15.9,15.9,0,0,1-12.912-.287C185.662,340.556,185.383,340.416,184.935,340.2Z"/>
        <path class="letter" id="l_sedond" data-name="Path 710" d="M117.906,314.148h-2.413v-7.689H130.86v27.366l2.148.1v7.715H115.54v-7.756h2.366Z"/>
        <path class="letter" id="t" data-name="Path 711" d="M175.3,249.13v9.776h5.142v7.83h-5.028c0,2.317-.11,4.51.037,6.685.108,1.606.934,2.122,2.552,1.9.817-.111,1.617-.353,2.533-.561,0,2.37.025,4.683-.03,6.993a1.258,1.258,0,0,1-.661.854,15.979,15.979,0,0,1-12.1,1.107c-3.438-1.105-4.929-3.8-5.145-7.218-.17-2.71-.1-5.434-.138-8.152-.006-.471,0-.942,0-1.564h-3.125V259h3.126c0-1.064-.048-2.009.024-2.944a1.442,1.442,0,0,1,.513-1.054C167.014,253.048,171.053,251.148,175.3,249.13Z"/>
        <path class="letter" id="l" data-name="Path 712" d="M139.577,283.593v-7.637l2.532-.139v-19.66h-2.5v-7.716h15.32V275.8l2.308.153v7.642Z"/>
        <path class="letter" id="Path_713" data-name="Path 713" d="M243.831,317.066h15.225v5.542c2.266-4.724,6.154-6.306,11.165-6.046v10.529c-1.781.172-3.542.223-5.255.534-3.455.628-5.231,2.87-4.974,6.22h3.562v7.807H243.819v-7.7h3.151V324.8h-3.139Z"/>
        <path class="letter" id="r_first" data-name="Path 714" d="M263.2,142.559v10.52c-1.84.188-3.644.226-5.381.583-3.416.7-4.935,2.687-4.889,6.174h3.638v7.8H236.886v-7.7h3.139v-9.162h-3.166v-7.688H252.1v5.393C254.419,143.841,258.269,142.323,263.2,142.559Z"/>
        <path class="letter" id="i" data-name="Path 715" d="M118.615,283.634v-7.677l2.413-.144v-8.982l-2.395-.135v-7.673h15.329v16.764l2.019.167v7.68Z"/>
        <path class="letter" id="Path_716" data-name="Path 716" d="M127.246,247.3a27.466,27.466,0,0,1,4.886,1.691c2.531,1.429,2.5,4.423.13,6.1-2.545,1.8-7.968,1.82-10.515.04a3.546,3.546,0,0,1,.147-6.091,9.04,9.04,0,0,1,5.239-1.4Z"/>
      </g>
    </g>
  </g>
</svg>
