<svg xmlns="http://www.w3.org/2000/svg" width="325.006" height="384.395" viewBox="0 0 325.006 384.395">
  <g id="Group_75" data-name="Group 75" transform="translate(-10 -17)">
    <g id="Group_74" data-name="Group 74" transform="translate(2.424 -0.566)">
      <path id="Path_693" data-name="Path 693" d="M332.582,401.961,63.264,398.455,7.576,401.961,13.234,77.37l-5.659-59.8H332.582L327.6,51.235Z" fill="#f7eac1"/>
    </g>
    <g id="Group_73" data-name="Group 73" transform="translate(5.655 19.25)">
      <g id="Group_71" data-name="Group 71">
        <path id="Path_718" data-name="Path 718" d="M50.9,107.137l-2.368-.11V99.321c.283-.03.517-.076.75-.076,6,0,11.995.008,17.993-.02a1.087,1.087,0,0,1,1.185.878c1.42,3.769,2.881,7.524,4.425,11.535.252-.575.428-.946.579-1.327q2.01-5.062,4-10.132c.215-.552.395-.958,1.139-.954,6,.03,11.994.016,17.992.023a4.908,4.908,0,0,1,.732.113v7.65l-2.435.134v16.821l2.409.138v7.658H80.485v-7.653l2.435-.134V106.67l-.142-.092c-.156.358-.327.71-.464,1.074q-4.333,11.544-8.641,23.1c-.308.83-.675,1.234-1.614,1.15-1.227-.11-2.763.348-3.618-.238s-1.04-2.144-1.469-3.295q-3.93-10.546-7.838-21.1c-.1-.258-.213-.507-.454-1.075v17.782H61.1V131.8H48.535v-7.7l2.368-.112Z"/>
        <path id="Path_719" data-name="Path 719" d="M134.567,131.771v-7.058h2.724v-8.366l-2.675-.118v-7.075h14.641v3.157a13.463,13.463,0,0,1,7.375-3.425,20.921,20.921,0,0,1,5.465.195A6.623,6.623,0,0,1,166.883,113c2.2-1.73,4.432-3.333,7.158-3.849a16.808,16.808,0,0,1,5.217-.305c4.131.544,6.461,3.552,6.671,8.357.106,2.429.018,4.867.018,7.424h2.932V131.8H174.11V130.5c0-3.559.009-7.119,0-10.679-.011-2.97-1.547-4.057-4.352-3.1-2.012.685-2.126.844-2.126,2.967v4.954h3.154c.04.356.081.547.081.738.005,2.117,0,4.234,0,6.428H155.75v-8.547c0-1.4.035-2.8-.011-4.2-.065-1.957-1.1-2.9-3.022-2.609a11.867,11.867,0,0,0-2.9,1.041,1.1,1.1,0,0,0-.525.82c-.044,2.071-.024,4.144-.024,6.338h3.14v7.125Z"/>
        <path id="Path_720" data-name="Path 720" d="M159.693,51.555h14.779v2.923c.548-.346.911-.555,1.255-.793a14.018,14.018,0,0,1,9.151-2.58c4.314.283,7.173,2.891,7.57,7.205.216,2.342.158,4.709.218,7.064.013.512,0,1.025,0,1.636l2.588.138v7.016h-14.5c0-3.761,0-7.473,0-11.185a10.486,10.486,0,0,0-.094-1.792,2.69,2.69,0,0,0-3.289-2.359,5.132,5.132,0,0,0-.582.14c-2.2.576-2.276.669-2.273,2.877q0,2.4.023,4.8a2.117,2.117,0,0,0,.133.4h3.112v7.168H159.709V67.1H162.6V58.686h-2.9Z"/>
        <path id="Path_721" data-name="Path 721" d="M275.79,116.344l-2.069-.128v-7.032h11.643v7.126c-2.4-.735-2.743,1.157-3.443,2.63-3.548,7.458-7.117,14.906-10.635,22.378a1.589,1.589,0,0,1-1.722,1.062c-2.866-.056-5.734-.021-8.666-.021v-7.2c.964,0,1.909.009,2.853,0a2.063,2.063,0,0,0,1.7-2.594c-2.693-5.257-5.39-10.512-8.179-15.717-.247-.462-1.163-.567-1.9-.895v-6.79h15.376v7.04l-2.364.156c1.3,2.935,2.551,5.745,3.878,8.735Z"/>
        <path id="Path_722" data-name="Path 722" d="M147.36,190.124a19.814,19.814,0,0,1-10.129-2.451c-7.84-4.561-7.873-14.847.108-19.155a20.357,20.357,0,0,1,20.427.144c7.569,4.2,7.538,14.264.146,18.782A20.07,20.07,0,0,1,147.36,190.124Zm-4.032-12.132a24.145,24.145,0,0,0,.561,2.863,3.37,3.37,0,0,0,3.284,2.5,3.523,3.523,0,0,0,3.6-2.266,7.832,7.832,0,0,0,.1-5.954,3.692,3.692,0,0,0-6.861-.021A21.468,21.468,0,0,0,143.328,177.992Z"/>
        <path id="Path_723" data-name="Path 723" d="M208.251,132.537c-4.089-.069-8.041-.871-11.442-3.431a10.631,10.631,0,0,1,.1-17.27c4.3-3.151,9.242-3.8,14.388-3.219a16.165,16.165,0,0,1,9.858,4.18,10.6,10.6,0,0,1-.9,16.113C216.749,131.64,212.657,132.5,208.251,132.537Zm4.284-12.05a25.022,25.022,0,0,0-.585-2.807,3.375,3.375,0,0,0-3.191-2.475,3.525,3.525,0,0,0-3.656,2.177,7.806,7.806,0,0,0-.122,6.068,3.33,3.33,0,0,0,3.307,2.308,3.42,3.42,0,0,0,3.49-2.237A21.559,21.559,0,0,0,212.535,120.487Z"/>
        <path id="Path_724" data-name="Path 724" d="M188.609,156.205v6.275c-1.165,0-2.272-.023-3.378.005-2.676.067-3.7,1.262-3.422,4.195h4.154v7.173H181.81v8.381h3.675V189.4H167.074v-7.1H169.8v-8.361l-2.726-.122V166.7H169.8c.044-.678.079-1.188.111-1.7a8.2,8.2,0,0,1,6.106-7.855,27.7,27.7,0,0,1,9.016-.947C186.183,156.214,187.337,156.205,188.609,156.205Z"/>
        <path id="Path_725" data-name="Path 725" d="M137.847,74.144V66.45h2.915V49.521h-2.894V41.75h18.567v7.68H153.57V66.4h2.847v7.741Z"/>
        <path id="Path_726" data-name="Path 726" d="M130.654,121.715H113.112c-.37,2.533.836,4.733,2.81,5.279a3.471,3.471,0,0,0,4.139-1.582,1.155,1.155,0,0,1,1.342-.637c2.891.36,5.787.684,9.094,1.069a29.182,29.182,0,0,1-2.533,3.195,13.034,13.034,0,0,1-7.692,3.283,23.35,23.35,0,0,1-11.11-1.052c-4.463-1.668-7.269-4.772-7.625-9.645-.381-5.2,1.816-9.164,6.506-11.41a18.234,18.234,0,0,1,16.218.011A11.565,11.565,0,0,1,130.654,121.715Zm-10.933-3.121c-.117-1.924-.293-3.643-2.085-4.565a2.6,2.6,0,0,0-3.024.286,5.066,5.066,0,0,0-1.554,4.279Z"/>
        <path id="Path_727" data-name="Path 727" d="M246.348,124.693c0,2.243,0,4.279,0,6.315,0,.233-.037.466-.065.783H228.021v-7.1h2.888v-8.4h-2.9v-7.135h14.087v4.972a10.532,10.532,0,0,1,4.221-4.4,10.935,10.935,0,0,1,6.025-1v9.705c-1.5.124-3.012.155-4.491.391-3.379.541-5.139,2.624-4.894,5.862Z"/>
      </g>
      <g id="miltonGlaser" data-name="Group 72">
        <path id="Path_732" data-name="Path 732" d="M60.517,251.973h3.124V262.03h-16.3V251.983H50.5V230.192H47.372V219.96h1.193c7.638,0,15.277.022,22.915-.027a1.527,1.527,0,0,1,1.7,1.206c1.827,4.9,3.717,9.771,5.671,14.875.241-.535.412-.875.552-1.228q2.754-6.958,5.49-13.924c.226-.579.455-.919,1.17-.916,7.958.027,15.917.02,23.875.026a3.769,3.769,0,0,1,.459.07v10.066h-3.09v21.83h3.1V262H88.675V251.987h3.158V228.835c-.213.49-.349.768-.457,1.056q-5.835,15.526-11.639,31.065c-.32.862-.688,1.192-1.6,1.142a34.023,34.023,0,0,0-4.077,0c-.929.061-1.3-.3-1.612-1.137Q66.868,245.8,61.218,230.651a5.25,5.25,0,0,0-.7-1.4Z"/>
        <path id="Path_733" data-name="Path 733" d="M84.33,297.012v-2.553H94.461v14.56c-.462.021-.885.056-1.308.057-2.559.005-5.119-.028-7.677.02a1.715,1.715,0,0,1-1.719-.917,8.773,8.773,0,0,0-9.8-4.357,5.175,5.175,0,0,0-4.384,3.464,23.1,23.1,0,0,0-1.2,6.176,35.941,35.941,0,0,0,.576,8.437c1.155,5.441,5.765,5.961,9.236,4.977a4.373,4.373,0,0,0,3.135-4.889H77.236v-7.945H95.892c1.089,11.3-3.947,20.394-15.879,22.652a32.443,32.443,0,0,1-14.143-.575c-9.2-2.341-14.665-8.5-15.816-18.249-1.115-9.438,3.262-18.4,12.17-22.26C69.658,292.389,77.05,292.6,84.33,297.012Z"/>
        <path id="Path_734" data-name="Path 734" d="M286.348,262.074H267.59v-1.319q0-6.9,0-13.8c0-.4.007-.8-.032-1.2-.268-2.73-1.856-3.978-4.57-3.6a5.334,5.334,0,0,0-.583.131c-2.8.727-2.936.9-2.936,3.768v6.75h4.268v9.224H240.422v-9.16h3.69V241.96h-3.669v-9.205h18.979v3.917c.579-.4.926-.629,1.266-.871a18.167,18.167,0,0,1,12.642-3.524c5.428.529,8.878,3.872,9.352,9.336.231,2.662.167,5.35.223,8.026.02.995,0,1.991,0,3.164h3.362c.035.451.075.726.075,1C286.35,256.518,286.348,259.232,286.348,262.074Z"/>
        <path id="Path_735" data-name="Path 735" d="M165.348,327.277h3.8v9.158H150.1l-.12-2.234c-4.822,3.489-10.132,3.311-15.446,2.191-3.734-.787-6.557-2.943-7.385-6.972a7.533,7.533,0,0,1,2.7-7.618,14.906,14.906,0,0,1,9.072-3.3,26.157,26.157,0,0,1,11.056,1.328,22.888,22.888,0,0,0-.032-3.45A4.089,4.089,0,0,0,146.9,313c-2.88-.857-5.531-.484-7.722,1.793-.25.259-.65.579-.951.552-3.807-.349-7.609-.755-11.489-1.155a10.655,10.655,0,0,1,6.424-6.251,29.812,29.812,0,0,1,10.12-1.662c4.879-.127,9.766-.134,14.52,1.2,3.487.98,6.308,2.785,7.2,6.6a14.441,14.441,0,0,1,.335,3.086C165.374,320.471,165.348,323.782,165.348,327.277Zm-15.317-.81.1-.008c-.105-.971.137-2.44-.389-2.806-1-.7-2.443-.771-3.705-1.092a1.767,1.767,0,0,0-.477-.006,3.986,3.986,0,0,0-4.17,4.016,3.922,3.922,0,0,0,4.207,4.074,10.327,10.327,0,0,0,4.058-1.5c.434-.263.269-1.518.373-2.321A2.863,2.863,0,0,0,150.031,326.467Z"/>
        <path id="Path_736" data-name="Path 736" d="M214.955,263.13a29.744,29.744,0,0,1-12.384-3.015c-7.153-3.737-10.036-11.571-6.791-18.571a14.979,14.979,0,0,1,8.643-7.7c7.878-3.027,15.743-2.893,23.328.937,8.182,4.131,10.508,14.222,4.971,21.125-2.884,3.6-6.854,5.428-11.25,6.354C219.333,262.712,217.129,262.85,214.955,263.13Zm-5.167-15.741a32.41,32.41,0,0,0,.858,3.811,4.211,4.211,0,0,0,4.056,2.994,4.468,4.468,0,0,0,4.64-2.716,10.277,10.277,0,0,0,.209-7.924,4.412,4.412,0,0,0-4.322-3.02,4.476,4.476,0,0,0-4.441,2.86A30,30,0,0,0,209.788,247.389Z"/>
        <path id="Path_737" data-name="Path 737" d="M249.45,323.314h-22.8c-.989,4.144,2.477,7.9,6.281,6.948a4.9,4.9,0,0,0,3.015-2.387,1.278,1.278,0,0,1,.967-.551c3.928.408,7.849.875,12.17,1.373a37.415,37.415,0,0,1-2.523,3.479,15.556,15.556,0,0,1-8.885,4.6,30.075,30.075,0,0,1-15.83-.988c-5.856-2.061-9.574-6.057-10.1-12.4-.544-6.529,2.075-11.688,7.956-14.614a23.08,23.08,0,0,1,22.817.584C247.181,312.036,249.98,318,249.45,323.314ZM226.643,319.4h8.467c.334-3.668-1.467-6.342-4.239-6.391C228.287,312.96,226.422,315.715,226.643,319.4Z"/>
        <path id="Path_738" data-name="Path 738" d="M194.777,308.985l.1-1.823h9.254v8.477c-2.191,0-4.336-.052-6.476.019a5.119,5.119,0,0,1-3.626-1.1,9.942,9.942,0,0,0-7.238-1.921,2.134,2.134,0,0,0-1.148.26,3.023,3.023,0,0,0-1.114,1.489c-.056.342.607,1.054,1.064,1.184,1.761.5,3.582.783,5.357,1.241,3.2.827,6.382,1.712,9.565,2.6a6.258,6.258,0,0,1,1.29.624c2.878,1.588,4.6,3.844,4.477,7.316-.131,3.539-1.536,6.35-4.76,7.863a18.664,18.664,0,0,1-16.223.106c-.39-.175-.772-.369-1.266-.606l-.167,2.055h-9.32v-9.179a7.686,7.686,0,0,1,.87-.1c1.32-.012,2.644.061,3.958-.02,2.357-.146,4.415.093,6.316,1.923,2,1.922,4.732,1.988,7.358,1.335.626-.155,1.118-.847,1.671-1.291-.473-.53-.854-1.354-1.437-1.537-2.2-.692-4.5-1.07-6.7-1.764a77.73,77.73,0,0,1-8.761-3.14,7.147,7.147,0,0,1-4.3-7.163c.083-3.371,1.417-6.139,4.527-7.62a17.5,17.5,0,0,1,15.821.258C194.144,308.6,194.4,308.77,194.777,308.985Z"/>
        <path id="Path_739" data-name="Path 739" d="M104.3,327.254V303.647H101.3V294.46H119.6v32.7l2.664.145v9.145H101.315v-9.194Z"/>
        <path id="Path_740" data-name="Path 740" d="M143.274,229.181h-2.859v-9.13h18.232v32.774h2.729v9.219H140.441v-9.161h2.833Z"/>
        <path id="Path_741" data-name="Path 741" d="M182.916,221.071v11.608h6.141v9.2h-5.908c0,2.965-.092,5.823.044,8.67.056,1.168,1.065,1.787,2.385,1.666a33.039,33.039,0,0,0,3.53-.708v6.717c0,2.4.012,2.426-2.2,3.267a20.469,20.469,0,0,1-11.415,1.1c-4.657-.915-7.432-3.994-7.719-8.786-.2-3.386-.11-6.791-.148-10.187-.005-.515,0-1.03,0-1.651h-3.745v-9.269h3.745c0-1.321-.051-2.508.03-3.687a1.489,1.489,0,0,1,.624-1.083c4.7-2.291,9.424-4.529,14.146-6.775A2.268,2.268,0,0,1,182.916,221.071Z"/>
        <path id="Path_742" data-name="Path 742" d="M272.555,307.19v6.518a12.656,12.656,0,0,1,5.414-5.753,15.34,15.34,0,0,1,7.765-1.4v12.87a26.741,26.741,0,0,0-4.236.046,17.978,17.978,0,0,0-4.9,1.4,5.689,5.689,0,0,0-2.952,6.346h4.187v9.235h-23.56V327.3h3.818V316.349h-3.807V307.19Z"/>
        <path id="Path_743" data-name="Path 743" d="M133.631,232.758V252.77l2.4.133v9.113H115.312v-9.093l2.935-.152v-10.8h-2.919v-9.215Z"/>
        <path id="Path_744" data-name="Path 744" d="M125.518,218.78a51.386,51.386,0,0,1,5.435,1.619,4.12,4.12,0,0,1,2.694,3.925,4.311,4.311,0,0,1-2.615,4,12.47,12.47,0,0,1-11.437.049c-3.331-1.635-3.417-5.568-.339-7.648a10.782,10.782,0,0,1,6.164-1.609Z"/>
      </g>
    </g>
  </g>
</svg>
