<svg xmlns="http://www.w3.org/2000/svg" width="1048.833" height="649.124" viewBox="0 0 148.833 949.124">
  <g id="Group_22" data-name="Group 22" transform="translate(-20.806 250.766)">
    <path id="Path_693" data-name="Path 693" d="M556.639,662.889l-454.793-5.921-94.04,5.921,9.556-548.133L7.806,13.766H556.639l-8.414,56.857Z" fill="#dcdcdc"/>
    <g id="Group_20" data-name="Group 20" transform="translate(95.108 110)">
      <path id="Path_694" data-name="Path 694" d="M59.5,130.972l28.292.042c.789,0,1.577,0,2.53,0l13.1,34.956.363.034c4.4-11.6,8.793-23.191,13.224-34.873h30.96v10.2h-7.6v39.959l7.648.174v10c-1.344.439-27.821.571-30.464.13V181.449H124.4c.444-1.581.567-37.266.194-39.88-.628-.356-1.115-.25-1.4.459q-.372.914-.718,1.842-8.564,22.967-17.132,45.934c-.228.613-.493,1.212-.779,1.9H98.112c-.3-.736-.64-1.508-.937-2.293Q88.436,166.3,79.7,143.186a4.038,4.038,0,0,0-.525-1.267,5.278,5.278,0,0,0-1.4-.768v40.113c2.46.294,4.95-.022,7.361.182.446,1.476.539,7.714.15,10.279-.652.032-1.349.095-2.047.1q-10.783.01-21.566.008c-.723,0-1.444.063-2.167.1V181.239H67.52a2.481,2.481,0,0,0,.2-.632q.023-18.848.025-37.7a10.973,10.973,0,0,0-.1-1.172c-.007-.054-.076-.1-.12-.149s-.095-.091-.343-.328H59.5Z" transform="translate(-59.504 -32.02)"/>
      <path id="Path_696" data-name="Path 696" d="M298.477,151.947H292.4q-10.044,25.6-20.112,51.272H257.506c-.142-3.178-.039-6.3-.056-9.622h8.036c.9-2.425,1.812-4.678,2.538-6.988a3.283,3.283,0,0,0-.4-2.02q-5.005-11.29-10.076-22.551-1.857-4.149-3.727-8.291c-.268-.594-.556-1.18-.917-1.944h-5.959v-9.769h25.214v9.749h-4.917c2.362,6.3,4.595,12.262,7.01,18.7,2.685-6.307,4.933-12.292,7.44-18.537l-5.3-.191v-9.686a8.068,8.068,0,0,1,1.15-.171q9.985-.015,19.972,0a6.184,6.184,0,0,1,.968.149Z" transform="translate(69.584 -24.497)"/>
      <path id="Path_697" data-name="Path 697" d="M128.762,72.375v10.3c-2.925.193-5.87-.019-8.763.117-.454,1.459-.6,36.748-.164,39.949h8.894v10.352H94.971c-.444-1.366-.564-7.05-.177-10.233h8.84V82.853c-2.9-.263-5.843.032-9.019-.182.03-3.494-.128-6.892.11-10.3Z" transform="translate(47.639 -72.375)"/>
      <path id="Path_698" data-name="Path 698" d="M223.689,361.788c-1.283-.247-2.563-.513-3.85-.735a21.005,21.005,0,0,1-17.6-19.163,23.352,23.352,0,0,1,1.834-12.159c4.149-9.041,13.434-13.575,22.858-12.476,9.313,1.088,15.842,6,18.618,15.066,3.913,12.777-3.078,25.313-15.5,28.446-1.577.4-3.185.682-4.777,1.02Zm-7.895-22.73a16.652,16.652,0,0,0,2,8.006,7.167,7.167,0,0,0,5.883,3.772,7.356,7.356,0,0,0,7.7-4.661,16.864,16.864,0,0,0,1.221-8.886,18.779,18.779,0,0,0-1.187-4.951c-1.393-3.4-4.156-4.958-7.844-4.737-3.328.2-5.627,1.971-6.658,5.478A56.753,56.753,0,0,0,215.794,339.059Z" transform="translate(38.703 96.16)"/>
      <path id="Path_699" data-name="Path 699" d="M196.916,361.629c-.628-.133-1.251-.3-1.885-.4a14.8,14.8,0,0,1-7.111-2.508l-.591,1.523H178.1c-.451-1.481-.594-10.74-.248-14.214,1.344-.412,7.047-.512,9.708-.147a7.185,7.185,0,0,0,4.784,5.471,14.105,14.105,0,0,0,9.306.093,3.207,3.207,0,0,0,.181-5.936c-2.124-.675-4.306-1.185-6.481-1.7-2.943-.694-5.934-1.214-8.847-2.018a22.632,22.632,0,0,1-4.7-2.025c-7.771-4.23-7.651-16.068.184-20.166a21.093,21.093,0,0,1,12.469-2.114c2.6.3,5.149.974,7.829,1.5l.366-.947h9.271c.037.557.093,1,.095,1.451.007,3.546,0,7.091,0,10.752H202.5c-1.418-3.323-4.421-4.082-7.716-4.266a20.606,20.606,0,0,0-3.355.042,8.472,8.472,0,0,0-2.452.675,2.421,2.421,0,0,0-1.525,2.346,2.168,2.168,0,0,0,1.714,2.16c1.51.446,3.05.8,4.592,1.12,3.283.686,6.6,1.223,9.855,2.026a24.5,24.5,0,0,1,4.941,1.959c4.912,2.442,6.775,6.643,6.378,11.9-.52,6.888-4.754,11.316-11.806,12.613-1.412.26-2.818.534-4.228.8Z" transform="translate(20.754 96.32)"/>
      <path id="Path_700" data-name="Path 700" d="M128.292,283.211q6.609-17.427,13.227-34.883H172.54c.029,3.374.022,6.687,0,10.235h-7.709v39.961c2.531.057,5.051.115,7.641.176v10.024c-1.451.4-27.5.52-30.351.128V298.685H149.1v-39.9a.905.905,0,0,0-1.425.483c-.177.426-.326.863-.486,1.3q-8.681,23.235-17.361,46.473c-.228.611-.478,1.214-.794,2.01-1.9,0-3.791-.007-5.684,0-1.013.007-1.076-.848-1.317-1.479-1.65-4.308-3.264-8.628-4.9-12.94q-6.469-17.1-12.94-34.2a4.147,4.147,0,0,0-.525-1.268,5.488,5.488,0,0,0-1.412-.8v40.152l7.638.186v10.005c-1.42.437-23.333.52-25.484.078V298.766c2.493-.387,5.054.051,7.68-.274V258.646H84.424V248.564c1.522-.442,23.633-.623,30.43-.233L127.9,283.144Z" transform="translate(-42.351 48.656)"/>
      <path id="Path_701" data-name="Path 701" d="M177.625,184.4v-2.312c0-7.322.025-14.644-.024-21.965a13.534,13.534,0,0,0-.554-3.881,3.958,3.958,0,0,0-3.634-2.916,13.246,13.246,0,0,0-4.114.2c-2.283.571-4.492,1.439-6.723,2.182v18.981h6.648v9.718H142.087v-9.58H148.8V152.133h-6.669V142.26h20.237l.218,3.178c.751-.375,1.38-.689,2.01-1a24.323,24.323,0,0,1,14.345-2.683,14.68,14.68,0,0,1,9.269,4.806c.172.193.383.351.682.621.615-.378,1.216-.757,1.824-1.125a28.134,28.134,0,0,1,19.287-4.193c4.887.741,8.15,3.362,9.24,8.214a42.788,42.788,0,0,1,.946,8.023c.147,4.745.041,9.5.041,14.247v2.373h6.841v9.713H206.8c-.051-.8-.14-1.554-.142-2.312-.012-6.993,0-13.986-.017-20.977a26.209,26.209,0,0,0-.2-3.551,4.561,4.561,0,0,0-4.409-4.3,13.887,13.887,0,0,0-3.732.147,21.919,21.919,0,0,0-6.917,2.5v18.733h6.648V184.4Z" transform="translate(-2.63 -24.735)"/>
      <path id="Path_702" data-name="Path 702" d="M136.854,311.57v-4.252h10.011c.388,1.474.466,19.16.083,21.391H136.928c-.218-.444-.507-1.018-.779-1.6-4.451-9.563-16.227-12.69-24.9-7.727a16.153,16.153,0,0,0-7.824,10.941,27.5,27.5,0,0,0,1.032,16.345c2.653,6.8,7.64,10.6,15.033,10.852a21.614,21.614,0,0,0,5.872-.554c4.595-1.14,7.447-4.266,9-8.655a2.869,2.869,0,0,0,.008-.75H124.015V337.57c1.381-.429,26.3-.513,28.313-.1.566,9.892-3.469,23.447-17.716,28.649a42.31,42.31,0,0,1-31.847-.743c-9.494-4.014-14.9-11.454-16.559-21.581a33.529,33.529,0,0,1,1.032-16.617c4-11.52,12.292-18.115,24.1-20.366a37.541,37.541,0,0,1,15.519.375,22.959,22.959,0,0,1,8.6,3.848c.316.233.66.429,1,.63C136.5,311.693,136.575,311.644,136.854,311.57Z" transform="translate(-41.51 88.643)"/>
      <path id="Path_703" data-name="Path 703" d="M137.186,116.14h6.471v9.669H117.422v-9.644H123.6V93.49H117.39V83.55c6.53-.037,13.013-.01,19.7-.019v3.845c.91-.557,1.5-.919,2.086-1.275,4.071-2.467,8.4-3.713,13.2-2.9a10.655,10.655,0,0,1,8.545,6.812,23.163,23.163,0,0,1,1.51,8.91c.035,4.944.01,9.891.01,14.835v2.3h6.294c.025,1.714.057,3.264.069,4.816.012,1.577,0,3.156,0,4.7-1.511.451-17.556.542-19.938.115-.029-.659-.086-1.363-.086-2.067q-.01-11.67-.012-23.341a16.079,16.079,0,0,0-.2-2.952,3.3,3.3,0,0,0-3.587-2.967,11.834,11.834,0,0,0-7.03,2.256,1.8,1.8,0,0,0-.735,1.25C137.171,103.858,137.186,109.848,137.186,116.14Z" transform="translate(63.361 -65.089)"/>
      <path id="Path_704" data-name="Path 704" d="M267.185,291.956h6.192v9.666h-19.7c-.037-.692-.1-1.383-.106-2.074-.007-7.913.012-15.826-.024-23.738a13.6,13.6,0,0,0-.417-3.312,3.009,3.009,0,0,0-3.048-2.342,11.917,11.917,0,0,0-7.415,2.286,1.8,1.8,0,0,0-.7,1.27c-.015,5.932.03,11.863.066,17.794,0,.056.056.112.182.348h6.007c.508,1.69.221,3.264.268,4.811.049,1.574.01,3.151.01,4.678-1.525.48-22.125.657-26.426.243-.174-3.136-.061-6.307-.078-9.626h6.073c.491-1.488.647-19.118.225-22.505-1.939-.458-3.992.061-5.956-.287a37.005,37.005,0,0,1-.093-9.718h19.56l.245,3.57c.812-.485,1.471-.878,2.133-1.272a18.585,18.585,0,0,1,13.045-2.739,10.717,10.717,0,0,1,8.568,7.062,24.613,24.613,0,0,1,1.375,9.134c.025,4.813.007,9.627.007,14.44Z" transform="translate(52.39 55.975)"/>
      <path id="Path_705" data-name="Path 705" d="M172.774,360.4l-.225-2.991c-.758.415-1.378.748-1.991,1.094a19.073,19.073,0,0,1-15.463,1.738c-4.836-1.471-8.146-4.548-9.026-9.722-.942-5.527.579-10.179,5.191-13.611a15.493,15.493,0,0,1,6.486-2.786c4.7-.878,9.315-.79,13.7,1.447.284.144.6.226,1.076.405a14.255,14.255,0,0,0-.159-5.335,5.937,5.937,0,0,0-4.372-4.421,10.367,10.367,0,0,0-9.874,1.89,3.346,3.346,0,0,1-3.072.74c-2.9-.579-5.821-1.1-8.928-1.674a12.476,12.476,0,0,1,.643-1.44,16.689,16.689,0,0,1,10.338-7.43,36.275,36.275,0,0,1,17.623-.3c6.3,1.408,9.924,5.448,10.956,11.767a42.03,42.03,0,0,1,.451,6.1c.066,4.22.02,8.442.02,12.663v2.155h6.728V360.4Zm-.363-15.924a13.968,13.968,0,0,0-7-2.7c-2.3-.152-4.58.12-5.873,2.356a5.983,5.983,0,0,0,.233,6.55c1.317,2,3.5,2.312,5.637,1.79a20.345,20.345,0,0,0,4.3-1.874C172.106,349.367,173.436,347.55,172.411,344.478Z" transform="translate(-0.071 96.139)"/>
      <path id="Path_706" data-name="Path 706" d="M168.021,244.232c-12.9-.1-22.118-9.474-22.015-22.39.1-12.7,9.826-22.09,22.8-21.929,11.823.147,21.821,8.768,21.737,22.308C190.458,234.96,180.752,244.334,168.021,244.232Zm8.891-22.311a49.066,49.066,0,0,0-1.434-6.495c-1.277-3.539-4.134-5.216-7.847-5.031-3.458.174-5.868,2.1-6.905,5.733a20.766,20.766,0,0,0-.4,10.151,10.657,10.657,0,0,0,2.381,4.917,6.825,6.825,0,0,0,4.789,2.432,7.423,7.423,0,0,0,7.783-4.536C176.354,226.837,176.544,224.419,176.912,221.922Z" transform="translate(0.068 15.457)"/>
      <path id="Path_707" data-name="Path 707" d="M192.788,280.708c-.277-12.333,9.354-22.211,22.265-22.2,12.76.007,22.161,9.345,22.178,22.051S227.71,302.828,215,302.833C202.01,302.838,192.8,293.665,192.788,280.708Zm13.653-.3a17.319,17.319,0,0,0,1.815,7.7,7.291,7.291,0,0,0,7.082,4.142,7.131,7.131,0,0,0,6.694-4.722,17.117,17.117,0,0,0,1.167-4.573,16.627,16.627,0,0,0-1.314-9.659c-1.57-3.133-4.18-4.536-7.775-4.286a6.858,6.858,0,0,0-6.473,5.225A55.208,55.208,0,0,0,206.441,280.41Z" transform="translate(32.283 55.809)"/>
      <path id="Path_708" data-name="Path 708" d="M194.617,163.505c-.027-12.706,9.507-22.194,22.3-22.194,12.746,0,22.166,9.364,22.183,22.056a21.754,21.754,0,0,1-22.248,22.27C203.876,185.641,194.642,176.451,194.617,163.505Zm13.685-.339a18.938,18.938,0,0,0,1.515,7.179c1.495,3.043,3.784,4.835,7.329,4.711s5.78-2.047,6.946-5.223a19.505,19.505,0,0,0,1.039-4.806,16.094,16.094,0,0,0-1.363-8.877,7.417,7.417,0,0,0-7.748-4.337,6.838,6.838,0,0,0-6.5,5.184A55.174,55.174,0,0,0,208.3,163.166Z" transform="translate(33.547 -24.9)"/>
      <path id="Path_709" data-name="Path 709" d="M158.285,166.31H127.278a3.381,3.381,0,0,0-.172.821,10.468,10.468,0,0,0,13.852,9.178,13.534,13.534,0,0,0,5.476-3.435,2.2,2.2,0,0,1,2.633-.561c2.675.924,5.382,1.758,8.072,2.638a6.6,6.6,0,0,1,.821.434,22.03,22.03,0,0,1-8.975,7.915c-5.059,2.386-10.407,2.724-15.855,2.1a24.442,24.442,0,0,1-4.82-1.035c-8.18-2.688-13.283-8.145-14.457-16.814-1.611-11.9,5.086-21.386,14.632-24.83a23.549,23.549,0,0,1,14.769-.464,19.029,19.029,0,0,1,10.9,8.042A26.732,26.732,0,0,1,158.285,166.31Zm-30.776-7.665H144.7c-.7-5.172-4.541-8.476-9.47-8.261C130.758,150.578,127.725,153.763,127.509,158.645Z" transform="translate(-22.24 -24.914)"/>
      <path id="Path_711" data-name="Path 711" d="M201.686,202.569c-.561-1.113-.983-2.069-1.51-2.964a2.741,2.741,0,0,0-2.758-1.557,2.866,2.866,0,0,0-2.574,2.148,13.616,13.616,0,0,0-.545,3.1c-.09,1.63-.024,3.269-.024,5.125h7.344v9.933h-7.244V241h7.651v9.75H174.716V241.13h5.917V218.437h-5.405v-9.9l5.552-.172c0-1.415-.068-2.658.017-3.891a27.809,27.809,0,0,1,.569-5.086,12.713,12.713,0,0,1,9.529-9.61,24.065,24.065,0,0,1,13.466.243,12.587,12.587,0,0,1,6.956,4.98C208.111,197.52,204.933,200.016,201.686,202.569Z" transform="translate(19.841 7.897)"/>
      <path id="Path_712" data-name="Path 712" d="M148.787,306.861v50.765h5.652c.51,1.6.615,7.06.253,9.571-1.336.429-22.764.583-25.91.164v-9.553h6.5c.008-13.815,0-27.412.005-41.238h-6.527v-9.71Z" transform="translate(-11.808 89.113)"/>
      <path id="Path_713" data-name="Path 713" d="M177.708,248.53V299.09h5.684c.478,1.559.581,6.991.245,9.571-1.358.426-23.468.535-25.888.1v-9.521h6.4c.027-13.78.007-27.377.013-41.185h-6.111c-.527-1.552-.645-6.89-.279-9.551C159.315,248.078,175.95,248.068,177.708,248.53Z" transform="translate(8.028 48.702)"/>
      <path id="Path_714" data-name="Path 714" d="M244.242,174.686h8.379v9.538c-1.407.383-27.115.464-29.436.069v-9.566h7.57v-22.5c-2.3-.382-4.661.025-7.256-.277-.1-3.2-.032-6.378-.03-9.7h19.653v9.2l.333.25c3.322-6.976,8.641-10.541,16.524-10.1v12.621c-.559.1-1.059.206-1.562.284-1.3.2-2.621.307-3.9.593-5.971,1.329-8.98,4.527-9.749,10.624C244.406,168.586,244.416,171.492,244.242,174.686Z" transform="translate(53.222 -24.722)"/>
      <path id="Path_715" data-name="Path 715" d="M251.928,350.562h8.19v9.649H230.691V350.54h7.557V327.905h-6.91c-.471-1.56-.551-7.493-.159-9.852h19.466v9.192l.329.208c3.266-6.986,8.641-10.416,16.613-10.085.019,4.24.022,8.362-.008,12.653-.657.11-1.221.2-1.782.3-1.81.329-3.651.551-5.424,1.022a10.42,10.42,0,0,0-7.672,7.768C251.661,342.773,251.8,346.518,251.928,350.562Z" transform="translate(58.39 96.334)"/>
      <path id="Path_717" data-name="Path 717" d="M200.568,297.247v9.291c-4.666,1.869-9.452,2.808-14.438,1.559a8.7,8.7,0,0,1-6.534-7.842,23.957,23.957,0,0,1-.12-2.764q-.013-9.7-.005-19.391v-2.413h-5.281V265.78l5.245-.231c.012-1.562.127-3.057.007-4.532a3.081,3.081,0,0,1,1.542-3.1c3.421-2.354,6.763-4.823,10.142-7.239.469-.336.966-.633,1.731-1.131v16.044h7.7v9.956h-7.5c-.056.833-.128,1.4-.13,1.979q-.013,7.814-.005,15.632c0,.132,0,.263,0,.4-.069,4.153,1.643,4.72,5.226,4.257A24.181,24.181,0,0,0,200.568,297.247Z" transform="translate(19.479 49.641)"/>
      <path id="Path_718" data-name="Path 718" d="M139.958,301.319v-9.642h6.194V269.028h-5.877c-.475-1.569-.561-7.314-.179-9.86H159.67v32.379h6.241v9.772Z" transform="translate(-4.166 56.267)"/>
      <path id="Path_719" data-name="Path 719" d="M150.856,262.447a7.335,7.335,0,0,1-7.516-7.282,7.411,7.411,0,1,1,14.82-.159A7.2,7.2,0,0,1,150.856,262.447Z" transform="translate(-1.768 48.27)"/>
    </g>
  </g>
</svg>
