<?xml version="1.0" encoding="UTF-8"?>
<svg xmlns="http://www.w3.org/2000/svg" width="278" height="290" viewBox="0 0 956.448 980.255">
  <path id="Path_244" data-name="Path 244" d="M856.433,380.8c90.987-10.334,166.79-8.944,220.629,3.284,5.255,12.6-5.5,17.888-12,24.418-13.465,13.5-18.6,29.034-16.421,47.966,5.486,47.5,10.49,95.082,15.358,142.643,3.206,31.236,11.591,59.17,40.934,76.692,5.661,3.38,8.675,11.165,15.378,20.283-41.437,21.153-86.814-2.2-128.038,18.41-12.981,46.884-7.612,97.67-14.875,159.391-10.895-18.642-19.318-27.026-20.574-36.375-3.38-24.843-3.265-50.149-5.331-75.185-1.391-17-4.134-33.884-6.51-52.7-42.5-2.917-81.579-5.583-131.517-9,12.77-14.74,17.5-22.485,24.244-27.6,26.177-19.917,36.531-45.146,36.356-78.45-.154-29.923,6.916-59.9,10.856-89.847C893.388,440.356,893.176,439.217,856.433,380.8Z" transform="translate(-863.486 433.708) rotate(-30)"/>


</svg>
