<svg xmlns="http://www.w3.org/2000/svg" width="575" height="557" viewBox="0 0 575 557">
  <defs>
    <clipPath id="clip-Web_1920_11">
      <rect width="575" height="557"/>
    </clipPath>
  </defs>
  <g id="Web_1920_11" data-name="Web 1920 – 11" clip-path="url(#clip-Web_1920_11)">
    <g id="Group_19" data-name="Group 19" transform="matrix(0.951, -0.309, 0.309, 0.951, -127.541, 13.148)">
      <path id="Path_679" data-name="Path 679" d="M1361.688-1h-172a28.4,28.4,0,0,0,3.023,3.247c10.72,8.475,21.311,17.13,32.274,25.276,29.494,21.917,61.237,40.243,93.236,58.11a404.081,404.081,0,0,1,80.239,58.652c29.709,27.952,55.742,59.134,76.919,94.014,15.9,26.195,30.413,53.277,44.75,80.388a445.558,445.558,0,0,1,21.278,46.766c6.472,16.647,11.9,33.754,16.878,50.926,8.979,31,12.141,62.617,7.7,94.784-.789,5.72-1.621,11.433-2.268,15.985-8.539-.487-16.524-2.035-24.2-1.075-7.835.98-15.365,4.423-23.542,6.946a24.5,24.5,0,0,0-2.222-3.3c-4.417-5.048-4.657-9.118-.628-15.513,16.578-26.314,20.81-55.851,19.23-86.378-1.9-36.651-11.959-71.311-27.645-104.214-23.25-48.771-54.8-91.712-93.63-129.074-33.435-32.173-71.616-56.986-115.476-72.683a386.4,386.4,0,0,1-40.362-16.623c-19.6-9.635-15.679-3.854-15.721-25.5-.016-8.124,1-16.3.425-24.365-1.143-16.038-11.5-25.621-27.456-25.622a55.892,55.892,0,0,0-15.89,2.512c-14.435,4.352-26.779,12-35.325,25.146a23.125,23.125,0,0,1-2.97-1.389c-18.54-12.261-37.249-24.276-55.507-36.948-8.706-6.042-16.548-13.34-24.782-20.069h-3.6V206.236c15.012-6.15,30.663-9.014,46.816-10.118a242.22,242.22,0,0,1,90.116,10.956,260.569,260.569,0,0,1,59.415,27.71c20.057,12.506,37.7,27.679,52.333,46.4,13.937,17.826,25.818,36.95,36.774,56.717q15.073,27.193,30.513,54.179c4.142,7.242,8.734,14.224,13.122,21.324a2.416,2.416,0,0,1-2.083-.758c-13.075-13.28-23.447-28.642-32.677-44.685-18.721-32.542-42.145-61.215-69.485-86.661-22.669-21.1-48.877-35.715-80.161-38.318a117.912,117.912,0,0,1-30.793-6.726,35.492,35.492,0,0,0-4.788-1.232c-37.278-7.831-73.626-4.5-109.1,9.226v1.81c4.2-1.511,8.333-3.265,12.614-4.494,30.256-8.689,60.926-10.96,91.985-5.314,7.349,1.336,14.55,3.492,22.55,5.45-1.156,1.06-1.332,1.367-1.532,1.385a77.731,77.731,0,0,0-47.5,21.329,8.481,8.481,0,0,1-4.377,1.717c-16.976,2.535-33.454,6.872-48.839,14.588-8.528,4.278-16.617,9.442-24.9,14.207v2.715a9.363,9.363,0,0,0,2.415-.966c16.262-12.68,35.151-19.752,54.544-25.665,5.082-1.549,10.386-2.361,15.589-3.51l.656,1.006c-1.309,2.1-2.523,4.269-3.944,6.291-11.06,15.73-16.126,33.234-14.666,52.4,2.036,26.719,15.4,46.963,36.43,62.642a27.273,27.273,0,0,1,3.484,3.774c4.814,2.505,9.681,4.916,14.384,7.615.7.4.635,2.158.925,3.289,1.891-1.778,3.741-2.152,6.349-1.009a99.841,99.841,0,0,0,13.153,4.569c33.273,9.307,67.48,11.693,101.733,13.686,19.9,1.158,39.82,1.981,59.679,3.6,6.754.551,13.348,3.078,20.341,4.782-3.574,5.414-6.641,9.526-9.147,13.958-6.691,11.831-10.3,24.541-7.842,38.147,4.115,22.754,20.389,37.67,44.257,40.521,8.812,1.052,14.985,4.118,19.166,12.661,5.519,11.281,12.536,21.822,18.865,32.609-35.479,32.42-27.14,65.392-1.179,94.38a23.051,23.051,0,0,0,2.313-1.064c16.78-9.944,33.616-19.8,50.26-29.966,2.932-1.792,4.379-1.657,6.662.8q25.965,27.926,52.224,55.575c3.587,3.769,7.856,6.882,11.81,10.3-.883-.84-1.234-2.292-1.747-3.683-10-27.119-19.969-54.25-30.1-81.318-1.109-2.963-.826-4.383,2.031-6.049,18.164-10.587,36.2-21.391,54.278-32.132,1.254-.746,2.465-1.563,3.79-2.406a51.705,51.705,0,0,1-3.243-6.867c-.562-1.828-1.126-4.259-.387-5.787,4.337-8.971,47.568-54.153,14.554-187.309-35.978-159.134-229.6-354.953-245-367.84A64.468,64.468,0,0,1,1361.688-1Zm135.6,450.923c-1.244-.784-1.444-.837-1.482-.947a11.256,11.256,0,0,1-.51-1.714c-3.474-19.539-13.835-33.632-32.127-41.74-1.715-.761-3.319-3.391-3.677-5.388-6.479-36.1-20.928-68.984-39.312-100.387-17.776-30.363-40.619-56.366-66.981-79.325-26.417-23.008-53.123-45.68-79.672-68.536-2.523-2.172-4.824-4.6-7.228-6.915,4.637,1.841,8.692,4.49,13.088,6.307,18.293,7.558,36.856,14.476,55.018,22.335,62.541,27.061,110.214,70.193,140.454,132.066,17.529,35.865,27.962,73.432,26.8,113.627C1501.359,429.374,1498.849,439.378,1497.283,449.923Zm-38.65-46c-5.359.348-6.942-1.945-7.553-6.028a92.808,92.808,0,0,0-3.332-13.579c-6.636-21.444-17.291-40.956-28.406-60.311-19.116-33.286-42.888-62.609-73.095-86.2-20.229-15.8-41.265-30.576-62.2-45.437-18.249-12.952-37.128-25.015-55.248-38.141-19-13.764-37.13-28.669-52.042-47.063-6.572-8.107-12.377-16.708-15.207-26.947-2.491-9.013-2.2-17.979,3.823-25.4,13.254-16.331,30.639-24.423,51.672-23.1,8.965.562,15.544,5.637,19.125,14.346,2.964,7.209,3.241,14.586,2.625,22.188-.559,6.9-1.1,13.834-1.11,20.754-.036,19.421,6.617,36.281,20.057,50.3,4.472,4.664,9.015,9.3,13.9,13.519,26.965,23.285,54.294,46.15,81.032,69.693C1403.192,267,1438.136,321.43,1455,387.115,1456.4,392.59,1457.4,398.17,1458.633,403.926ZM1384.3,423.535l-.94.994c-1.775-.591-3.585-1.093-5.319-1.788-19.908-7.97-39.759-16.086-59.722-23.913-10.461-4.1-21.531-6.849-31.579-11.752-14.269-6.964-28.043-15.027-41.667-23.227-12.6-7.583-25.049-15.626-34.8-26.922-10.922-12.658-8.051-21.493,8.125-25.433,11.845-2.885,23.27-.146,34.338,3.912,23.744,8.706,44.957,22.043,65.039,37.207,22.129,16.71,42.964,34.848,58.914,57.92C1379.539,414.649,1381.78,419.19,1384.3,423.535Z" transform="translate(-1073.983 1)"/>
      <path id="Path_681" data-name="Path 681" d="M1161.058-1c8.234,6.734,16.076,14.038,24.782,20.084,18.258,12.681,36.967,24.706,55.507,36.976a23.128,23.128,0,0,0,2.97,1.39c8.545-13.154,20.889-20.809,35.325-25.165a55.851,55.851,0,0,1,15.89-2.514c15.951,0,26.312,9.592,27.456,25.642.575,8.075-.44,16.253-.424,24.383.042,21.658-3.874,15.873,15.721,25.516a386.221,386.221,0,0,0,40.362,16.636c43.86,15.71,82.041,40.542,115.477,72.739,38.829,37.39,70.38,80.364,93.63,129.173,15.686,32.928,25.747,67.615,27.644,104.294,1.58,30.551-2.652,60.11-19.23,86.445-4.029,6.4-3.79,10.473.628,15.525a24.514,24.514,0,0,1,2.222,3.307c8.177-2.525,15.707-5.97,23.542-6.952,7.674-.961,15.659.588,24.2,1.076.647-4.556,1.479-10.273,2.268-16,4.439-32.193,1.277-63.832-7.7-94.857-4.974-17.186-10.405-34.306-16.878-50.966a446.062,446.062,0,0,0-21.277-46.8c-14.337-27.132-28.847-54.235-44.751-80.45-21.177-34.908-47.21-66.113-76.919-94.087a404.09,404.09,0,0,0-80.239-58.7c-32-17.881-63.742-36.221-93.236-58.155-10.963-8.153-21.554-16.815-32.275-25.3A28.405,28.405,0,0,1,1272.724-1Z" transform="translate(-1157.023 1)" fill="#ffa729"/>
      <path id="Path_682" data-name="Path 682" d="M1413.691,361.143c11.426-4.4,48.776-17.633,88.622-19.321,1.623.352,24.5,3.116,26.05,3.7,10.04,3.755,8.353,4.11,19.185,5.041,40.091,1.836,73.544,26.681,96.363,48.617,27.521,26.457,49.555,51.62,68.4,85.454,9.291,16.68,17.387,26.778,30.549,40.585a2.392,2.392,0,0,0,2.1.788c-4.417-7.382-9.04-14.641-13.209-22.171q-15.535-28.06-30.715-56.33c-11.029-20.551-22.988-40.435-37.017-58.969a202.83,202.83,0,0,0-52.679-48.237,258.546,258.546,0,0,0-59.808-28.81,236.542,236.542,0,0,0-90.712-11.391c-16.259,1.148-32.014,4.126-47.125,10.52Z" transform="translate(-1413.137 -107.66)" fill="#d83b4c"/>
      <path id="Path_683" data-name="Path 683" d="M1873.922,540.128a28.446,28.446,0,0,0-3.673-3.909c-22.169-16.24-36.261-37.209-38.407-64.884-1.54-19.853,3.8-37.983,15.462-54.276,1.5-2.094,2.778-4.341,4.158-6.516l-.692-1.042c-5.485,1.191-4.751-.563-10.109,1.042-24.314,6.013-47.35,15.445-64.539,29.139-1.026.592-1.729,1-1.838,1.039-.488,49.1-.72,37.794,0,80.611a13.529,13.529,0,0,1,1.99,1.877c9.566,13.539,22.627,22.453,38.342,27.472,19.6,6.258,38.272,5.275,54.926-8.291a25.089,25.089,0,0,1,4.509-2.366Z" transform="translate(-1774.988 -142.963)" fill="#d83b4c"/>
      <path id="Path_684" data-name="Path 684" d="M1723.881,418.477c8.287-4.743,16.375-9.883,24.9-14.141,15.384-7.68,31.863-12,48.839-14.52a8.5,8.5,0,0,0,4.377-1.709,77.9,77.9,0,0,1,47.5-21.23c.2-.018.377-.324,1.532-1.378-8-1.949-15.2-4.094-22.549-5.424-31.059-5.62-61.729-3.36-91.985,5.289-4.28,1.223-8.412,2.969-12.614,4.473Z" transform="translate(-1723.448 -122.744)" fill="#ffa729"/>
      <path id="Path_685" data-name="Path 685" d="M1860.125,605.419c-.289-1.125-.223-2.872-.925-3.273-4.7-2.687-9.57-5.086-14.384-7.58l.123-.1c-9.355,10.028-20.959,15.491-34.592,15.552-22.892.1-41.665-9.232-56.711-26.328-1.077-1.223-2.218-2.39-3.329-3.583v29.724a15.67,15.67,0,0,1,1.936,1.041c13.968,10.168,29.269,16.8,46.7,18.115,22.139,1.668,41.452-4.348,57.228-20.436a44.044,44.044,0,0,1,4.079-3.3Z" transform="translate(-1749.874 -199.901)" fill="#ffa729"/>
      <path id="Path_686" data-name="Path 686" d="M1860.251,618.727a44.044,44.044,0,0,0-4.079,3.3c-15.776,16.089-35.088,22.1-57.228,20.436-17.432-1.313-32.733-7.946-46.7-18.115a15.679,15.679,0,0,0-1.936-1.041v1.8c21.214,16.568,45.07,23.1,71.592,17.93a63.059,63.059,0,0,0,35.627-20.337A36.5,36.5,0,0,0,1860.251,618.727Z" transform="translate(-1749.874 -213.321)"/>
      <path id="Path_688" data-name="Path 688" d="M1773.828,578.175c1.111,1.193,2.252,2.359,3.329,3.583,15.046,17.1,33.819,26.43,56.711,26.328,13.632-.061,25.237-5.524,34.592-15.552a23.7,23.7,0,0,0-4.277,2.273c-15.8,13.036-33.507,13.981-52.1,7.967-14.906-4.822-27.294-13.389-36.368-26.4a12.91,12.91,0,0,0-1.888-1.8Z" transform="translate(-1773.395 -198.031)"/>
      <path id="Path_690" data-name="Path 690" d="M1512.994,544.569c1.7-11.148,4.415-21.724,4.731-32.369,1.261-42.5-10.04-82.211-29.026-120.127-32.754-65.412-84.391-111.011-152.131-139.62-19.672-8.308-39.778-15.623-59.592-23.613-4.761-1.92-9.153-4.721-14.176-6.667,2.6,2.444,5.1,5.015,7.829,7.311,28.756,24.163,57.682,48.133,86.3,72.456,28.553,24.273,53.3,51.763,72.55,83.863,19.912,33.2,35.563,67.964,42.58,106.129.388,2.111,2.125,4.891,3.983,5.7,19.812,8.572,31.036,23.471,34.8,44.128a11.714,11.714,0,0,0,.553,1.812C1511.43,543.684,1511.647,543.74,1512.994,544.569Z" transform="translate(-1089.919 -92.292)" fill="#2d6d68"/>
      <path id="Path_691" data-name="Path 691" d="M1680.528,428.327c.4-30.652-30.008-122.857-86.584-171.357-29.942-25.667-60.545-50.6-90.74-75.981-5.468-4.6-10.554-9.654-15.562-14.739-15.05-15.281-22.5-33.663-22.459-54.835.015-7.544.617-15.1,1.243-22.627.69-8.288.379-16.33-2.94-24.19-4.01-9.495-11.377-15.028-21.416-15.641-23.553-1.44-43.021,7.381-57.863,25.186-6.744,8.091-7.07,17.866-4.281,27.693,3.169,11.163,9.67,20.54,17.029,29.378,16.7,20.054,37,36.3,58.277,51.31,20.291,14.31,50.524,40.148,70.959,54.269,23.446,16.2,73.882,52.157,123.507,133.709,12.447,21.1,13.7,32.727,21.127,56.106C1675.79,426.747,1677.135,429.252,1680.528,428.327Z" transform="translate(-1296.179 -23.341)" fill="#4e688d"/>
      <path id="Path_692" data-name="Path 692" d="M1623.731,587.65c-2.521-4.325-4.762-8.844-7.608-12.942-15.949-22.965-36.785-41.018-58.914-57.65-20.082-15.093-41.295-28.368-65.039-37.033-11.068-4.04-22.493-6.765-34.338-3.894-16.177,3.922-19.047,12.716-8.125,25.315,9.748,11.244,22.2,19.249,34.8,26.8,13.624,8.162,27.4,16.187,41.667,23.119,10.048,4.881,21.118,7.614,31.579,11.7,19.963,7.791,39.814,15.869,59.722,23.8,1.734.691,3.544,1.191,5.319,1.779Z" transform="translate(-1313.414 -163.372)" fill="#f7788c"/>
    </g>
  </g>
</svg>
