<svg xmlns="http://www.w3.org/2000/svg" xmlns:xlink="http://www.w3.org/1999/xlink" width="2995" height="2995" viewBox="0 0 2995 2995">
  <defs>
    <clipPath id="clip-path">
      <circle id="Ellipse_4" data-name="Ellipse 4" cx="1497.5" cy="1497.5" r="1497.5" transform="translate(132 98)" fill="#fff" stroke="#707070" stroke-width="1"/>
    </clipPath>
    <clipPath id="clip-path-2">
      <rect id="Rectangle_6" data-name="Rectangle 6" width="3259" height="3190" transform="translate(79 75.95)" fill="#fff" stroke="#707070" stroke-width="1"/>
    </clipPath>
  </defs>
  <g id="Mask_Group_3" data-name="Mask Group 3" transform="translate(-132 -98)" clip-path="url(#clip-path)">
    <g id="Mask_Group_2" data-name="Mask Group 2" transform="translate(-26 -112.95)" clip-path="url(#clip-path-2)">
      <g id="Group_77" data-name="Group 77" transform="translate(-93.801 -256.354)">
        <path id="Path_745" data-name="Path 745" d="M931.35,1753.135,2777.526,79.943l16.162,1728.82Z" transform="translate(815.945 216.009)" fill="#fbb01a"/>
        <g id="Group_76" data-name="Group 76">
          <path id="Path_746" data-name="Path 746" d="M931.35,1960.7,1705.943-5h1070.4V532.2Z" transform="translate(815.945 8.444)" fill="#ffcf3f"/>
          <path id="Path_747" data-name="Path 747" d="M1036.609,1962.341,810.093-5.672,1816.806,10.416Z" transform="translate(710.686 6.802)" fill="#fbb01a"/>
          <path id="Path_748" data-name="Path 748" d="M1462.688,1962.341,319.255-5.672h916.917Z" transform="translate(284.607 6.802)" fill="#ffd33a"/>
          <path id="Path_749" data-name="Path 749" d="M1743.295,1963.143,236.834,914.922-3.738,747.527-4-6,599.862-4.87Z" transform="translate(4 6)" fill="#fbb01a"/>
        </g>
        <path id="Path_750" data-name="Path 750" d="M930.938,548.5,2779.486,1976.872,2788.81,548.5Z" transform="translate(815.588 1421.232)" fill="#ffcf3f"/>
        <path id="Path_751" data-name="Path 751" d="M931.35,565.829,1795.61,2374.3l991.943,10.331-8.915-391.231Z" transform="translate(815.945 1403.314)" fill="#fbb01a"/>
        <path id="Path_752" data-name="Path 752" d="M964.64,565.829,893,2360.528l943.373,10.33Z" transform="translate(782.655 1403.314)" fill="#ffcf3f"/>
        <path id="Path_753" data-name="Path 753" d="M1390.86,565.829,402,2381.189l919.088-24.105Z" transform="translate(356.435 1403.314)" fill="#fbb01a"/>
        <path id="Path_754" data-name="Path 754" d="M1741.559,565.829-2,1983.162v394.583l760.3-3.444Z" transform="translate(5.736 1403.314)" fill="#ffcf3f"/>
        <path id="Path_755" data-name="Path 755" d="M-1.527,1606.808V364.117L1743.31,1584.39Z" transform="translate(4 384.756)" fill="#ffcf3f"/>
        <path id="Path_756" data-name="Path 756" d="M1741.262,565.829-1.658,585.231v580.108Z" transform="translate(6.033 1403.314)" fill="#ffcf3f"/>
        <path id="Path_757" data-name="Path 757" d="M-1.527,906.287V364.117l1746,523.384Z" transform="translate(1.526 1085.277)" fill="#fbb01a"/>
        <path id="Path_758" data-name="Path 758" d="M1745.784,906.287V364.117L-16.988,902.154Z" transform="translate(1765.526 1067.277)" fill="#ffcf3f"/>
        <path id="Path_759" data-name="Path 759" d="M1741.262,565.829-1.658,1144.844V1989.9Z" transform="translate(6.034 1403.314)" fill="#fbb01a"/>
        <path id="Path_760" data-name="Path 760" d="M-1.657,565.829l1753.986,19.532v583.978Z" transform="translate(1748.967 1403.314)" fill="#fbb01a"/>
      </g>
    </g>
  </g>
</svg>
